<?xml version="1.0" encoding="UTF-8"?>
<svg width="35" height="33" viewBox="0 0 35 33" fill="none" xmlns="http://www.w3.org/2000/svg">
<path d="M32.9582 1L19.8241 10.9179L22.2665 5.23403L32.9582 1Z" fill="#E17726" stroke="#E17726" stroke-width="0.25" stroke-linecap="round" stroke-linejoin="round"/>
<path d="M2.65601 1L15.6802 11.0179L13.3477 5.23403L2.65601 1Z" fill="#E27625" stroke="#E27625" stroke-width="0.25" stroke-linecap="round" stroke-linejoin="round"/>
<path d="M28.2976 23.5766L24.7856 28.8721L32.2861 30.8982L34.4267 23.7096L28.2976 23.5766Z" fill="#E27625" stroke="#E27625" stroke-width="0.25" stroke-linecap="round" stroke-linejoin="round"/>
<path d="M1.19592 23.7096L3.32345 30.8982L10.814 28.8721L7.31199 23.5766L1.19592 23.7096Z" fill="#E27625" stroke="#E27625" stroke-width="0.25" stroke-linecap="round" stroke-linejoin="round"/>
<path d="M10.4039 14.8459L8.30933 17.8974L15.7297 18.2301L15.4771 10.2712L10.4039 14.8459Z" fill="#E27625" stroke="#E27625" stroke-width="0.25" stroke-linecap="round" stroke-linejoin="round"/>
<path d="M25.2062 14.8459L20.0529 10.1712L19.8904 18.2301L27.3007 17.8974L25.2062 14.8459Z" fill="#E27625" stroke="#E27625" stroke-width="0.25" stroke-linecap="round" stroke-linejoin="round"/>
<path d="M10.814 28.8722L15.2645 26.7461L11.4297 23.7611L10.814 28.8722Z" fill="#E27625" stroke="#E27625" stroke-width="0.25" stroke-linecap="round" stroke-linejoin="round"/>
<path d="M20.3457 26.7461L24.7862 28.8722L24.1705 23.7611L20.3457 26.7461Z" fill="#E27625" stroke="#E27625" stroke-width="0.25" stroke-linecap="round" stroke-linejoin="round"/>
<path d="M24.7862 28.8722L20.3457 26.7461L20.7182 29.5977L20.6782 30.7982L24.7862 28.8722Z" fill="#D5BFB2" stroke="#D5BFB2" stroke-width="0.25" stroke-linecap="round" stroke-linejoin="round"/>
<path d="M10.814 28.8722L14.932 30.7982L14.902 29.5977L15.2645 26.7461L10.814 28.8722Z" fill="#D5BFB2" stroke="#D5BFB2" stroke-width="0.25" stroke-linecap="round" stroke-linejoin="round"/>
<path d="M14.992 21.9351L11.3096 20.8679L13.9046 19.6674L14.992 21.9351Z" fill="#233447" stroke="#233447" stroke-width="0.25" stroke-linecap="round" stroke-linejoin="round"/>
<path d="M20.6182 21.9351L21.7056 19.6674L24.3106 20.8679L20.6182 21.9351Z" fill="#233447" stroke="#233447" stroke-width="0.25" stroke-linecap="round" stroke-linejoin="round"/>
<path d="M10.814 28.8721L11.4497 23.5766L7.31201 23.7096L10.814 28.8721Z" fill="#CC6228" stroke="#CC6228" stroke-width="0.25" stroke-linecap="round" stroke-linejoin="round"/>
<path d="M24.1605 23.5766L24.7862 28.8721L28.2982 23.7096L24.1605 23.5766Z" fill="#CC6228" stroke="#CC6228" stroke-width="0.25" stroke-linecap="round" stroke-linejoin="round"/>
<path d="M27.3007 17.8975L19.8904 18.2302L20.6182 21.9351L21.7056 19.6674L24.3106 20.8679L27.3007 17.8975Z" fill="#CC6228" stroke="#CC6228" stroke-width="0.25" stroke-linecap="round" stroke-linejoin="round"/>
<path d="M11.3096 20.8679L13.9046 19.6674L14.992 21.9351L15.7297 18.2302L8.30933 17.8975L11.3096 20.8679Z" fill="#CC6228" stroke="#CC6228" stroke-width="0.25" stroke-linecap="round" stroke-linejoin="round"/>
<path d="M8.30933 17.8975L11.4297 23.7611L11.3096 20.8679L8.30933 17.8975Z" fill="#E27525" stroke="#E27525" stroke-width="0.25" stroke-linecap="round" stroke-linejoin="round"/>
<path d="M24.3106 20.8679L24.1705 23.7611L27.3007 17.8975L24.3106 20.8679Z" fill="#E27525" stroke="#E27525" stroke-width="0.25" stroke-linecap="round" stroke-linejoin="round"/>
<path d="M15.7297 18.2302L14.992 21.9351L15.9223 26.4134L16.1048 20.6016L15.7297 18.2302Z" fill="#E27525" stroke="#E27525" stroke-width="0.25" stroke-linecap="round" stroke-linejoin="round"/>
<path d="M19.8904 18.2302L19.5253 20.5916L19.6879 26.4134L20.6182 21.9351L19.8904 18.2302Z" fill="#E27525" stroke="#E27525" stroke-width="0.25" stroke-linecap="round" stroke-linejoin="round"/>
<path d="M20.6182 21.9351L19.6879 26.4134L20.3457 26.7461L24.1705 23.7611L24.3106 20.8679L20.6182 21.9351Z" fill="#F5841F" stroke="#F5841F" stroke-width="0.25" stroke-linecap="round" stroke-linejoin="round"/>
<path d="M11.3096 20.8679L11.4297 23.7611L15.2645 26.7461L15.9223 26.4134L14.992 21.9351L11.3096 20.8679Z" fill="#F5841F" stroke="#F5841F" stroke-width="0.25" stroke-linecap="round" stroke-linejoin="round"/>
<path d="M20.6782 30.7982L20.7182 29.5977L20.3657 29.2977H15.2445L14.902 29.5977L14.932 30.7982L10.814 28.8722L12.2741 30.0727L15.1945 32.0987H20.4057L23.3362 30.0727L24.7862 28.8722L20.6782 30.7982Z" fill="#C0AC9D" stroke="#C0AC9D" stroke-width="0.25" stroke-linecap="round" stroke-linejoin="round"/>
<path d="M20.3457 26.7461L19.6879 26.4134H15.9223L15.2645 26.7461L14.902 29.5977L15.2445 29.2977H20.3657L20.7182 29.5977L20.3457 26.7461Z" fill="#161616" stroke="#161616" stroke-width="0.25" stroke-linecap="round" stroke-linejoin="round"/>
<path d="M33.6239 11.5844L34.7413 6.33486L32.9582 1L20.3457 10.6179L25.2062 14.8459L32.0879 16.8719L33.5979 15.1126L32.9382 14.6459L33.9756 13.7126L33.1753 13.1126L34.2127 12.3459L33.6239 11.5844Z" fill="#763E1A" stroke="#763E1A" stroke-width="0.25" stroke-linecap="round" stroke-linejoin="round"/>
<path d="M0.868896 6.33486L1.99631 11.5844L1.38751 12.3459L2.43491 13.1126L1.63461 13.7126L2.67201 14.6459L2.01231 15.1126L3.52231 16.8719L10.4039 14.8459L15.2645 10.6179L2.65201 1L0.868896 6.33486Z" fill="#763E1A" stroke="#763E1A" stroke-width="0.25" stroke-linecap="round" stroke-linejoin="round"/>
<path d="M32.0879 16.8719L25.2062 14.8459L27.3007 17.8974L24.1705 23.7611L28.2982 23.7096H34.4267L32.0879 16.8719Z" fill="#F5841F" stroke="#F5841F" stroke-width="0.25" stroke-linecap="round" stroke-linejoin="round"/>
<path d="M10.4039 14.8459L3.52231 16.8719L1.19592 23.7096H7.31199L11.4297 23.7611L8.30933 17.8974L10.4039 14.8459Z" fill="#F5841F" stroke="#F5841F" stroke-width="0.25" stroke-linecap="round" stroke-linejoin="round"/>
<path d="M19.8904 18.2302L20.3457 10.6179L22.2665 5.23403H13.3477L15.2645 10.6179L15.7297 18.2302L15.9123 20.6116L15.9223 26.4134H19.6879L19.6979 20.6116L19.8904 18.2302Z" fill="#F5841F" stroke="#F5841F" stroke-width="0.25" stroke-linecap="round" stroke-linejoin="round"/>
</svg>